<?xml version="1.0" encoding="utf-8"?>
<!-- Generator: Adobe Illustrator 27.7.0, SVG Export Plug-In . SVG Version: 6.00 Build 0)  -->
<svg version="1.1" id="Outline" xmlns="http://www.w3.org/2000/svg" xmlns:xlink="http://www.w3.org/1999/xlink" x="0px" y="0px"
	 viewBox="0 0 384 384" style="enable-background:new 0 0 384 384;" xml:space="preserve">
<path d="M320,0H64C28.7,0,0,28.7,0,64v192c0,35.3,28.7,64,64,64h46.4l71.2,60.2c6,5,14.7,5,20.7,0l71.3-60.2H320
	c35.3,0,64-28.7,64-64V64C384,28.7,355.3,0,320,0z M352,256c0,17.7-14.3,32-32,32h-46.4c-7.6,0-14.9,2.7-20.7,7.6L192,347
	l-60.9-51.5l0,0c-5.8-4.9-13.1-7.6-20.7-7.6H64c-17.7,0-32-14.3-32-32V64c0-17.7,14.3-32,32-32h256c17.7,0,32,14.3,32,32V256z"/>
<path d="M85.3,85.3H192c11.8,0,21.3-9.6,21.3-21.3s-9.6-21.3-21.3-21.3H85.3C73.6,42.7,64,52.2,64,64S73.6,85.3,85.3,85.3z"/>
<path d="M298.7,128H85.3c-11.8,0-21.3,9.6-21.3,21.3c0,11.8,9.6,21.3,21.3,21.3h213.3c11.8,0,21.3-9.6,21.3-21.3
	C320,137.6,310.4,128,298.7,128z"/>
<path d="M298.7,213.3H85.3c-11.8,0-21.3,9.6-21.3,21.3c0,11.8,9.6,21.3,21.3,21.3h213.3c11.8,0,21.3-9.6,21.3-21.3
	C320,222.9,310.4,213.3,298.7,213.3z"/>
</svg>
