<?xml version="1.0" encoding="utf-8"?>
<!-- Generator: Adobe Illustrator 27.7.0, SVG Export Plug-In . SVG Version: 6.00 Build 0)  -->
<svg version="1.1" id="Capa_1" xmlns="http://www.w3.org/2000/svg" xmlns:xlink="http://www.w3.org/1999/xlink" x="0px" y="0px"
	 viewBox="0 0 384 384" style="enable-background:new 0 0 384 384;" xml:space="preserve">
<g>
	<path d="M225.9,192L377,41c9.4-9.4,9.4-24.6,0-34c-9.4-9.4-24.6-9.4-34,0l0,0l-151,151L41,7C31.6-2.3,16.4-2.3,7,7s-9.4,24.6,0,34
		l151,151L7,343c-9.4,9.4-9.4,24.6,0,34c9.4,9.4,24.6,9.4,34,0l151-151l151,151c9.4,9.4,24.6,9.4,34,0c9.4-9.4,9.4-24.6,0-34
		L225.9,192z"/>
</g>
</svg>
