<?xml version="1.0" encoding="utf-8"?>
<!-- Generator: Adobe Illustrator 27.7.0, SVG Export Plug-In . SVG Version: 6.00 Build 0)  -->
<svg version="1.1" id="Capa_1" xmlns="http://www.w3.org/2000/svg" xmlns:xlink="http://www.w3.org/1999/xlink" x="0px" y="0px"
	 viewBox="0 0 512 512" style="enable-background:new 0 0 512 512;" xml:space="preserve">
<g>
	<path d="M480,267.9H32c-17.7,0-32,14.3-32,32s14.3,32,32,32h448c17.7,0,32-14.3,32-32S497.7,267.9,480,267.9z"/>
	<path d="M32,182.6h448c17.7,0,32-14.3,32-32s-14.3-32-32-32H32c-17.7,0-32,14.3-32,32S14.3,182.6,32,182.6z"/>
	<path d="M480,417.4H32c-17.7,0-32,14.3-32,32c0,17.7,14.3,32,32,32h448c17.7,0,32-14.3,32-32C512,431.8,497.7,417.4,480,417.4z"/>
</g>
</svg>
